<?xml version="1.0" encoding="UTF-8"?>
<svg xmlns="http://www.w3.org/2000/svg" viewBox="0 0 1536 1024" preserveAspectRatio="xMidYMid slice">
  <defs>
    <linearGradient id="warmbg" x1="0" y1="0" x2="0" y2="1">
      <stop offset="0%" stop-color="#1a1614"/>
      <stop offset="50%" stop-color="#2a221e"/>
      <stop offset="100%" stop-color="#0d0c0a"/>
    </linearGradient>
    <radialGradient id="glow" cx="50%" cy="42%" r="40%">
      <stop offset="0%" stop-color="#d4a574" stop-opacity="0.35"/>
      <stop offset="60%" stop-color="#d4a574" stop-opacity="0.05"/>
      <stop offset="100%" stop-color="#d4a574" stop-opacity="0"/>
    </radialGradient>
    <filter id="grain2">
      <feTurbulence type="fractalNoise" baseFrequency="0.85" numOctaves="2" seed="7"/>
      <feColorMatrix values="0 0 0 0 1  0 0 0 0 1  0 0 0 0 1  0 0 0 0.05 0"/>
      <feComposite in2="SourceGraphic" operator="in"/>
    </filter>
  </defs>
  <rect width="1536" height="1024" fill="url(#warmbg)"/>
  <rect width="1536" height="1024" fill="url(#glow)"/>
  <rect width="1536" height="1024" filter="url(#grain2)"/>

  <!-- Silhouette of a person hugging themselves, with arms wrapped around -->
  <g transform="translate(768 580)">
    <!-- Head -->
    <circle cx="0" cy="-180" r="65" fill="#0a0807"/>
    <!-- Body (slightly hunched) -->
    <path d="M -90 -120 Q -110 -40 -90 60 L -80 180 L 80 180 L 90 60 Q 110 -40 90 -120 Q 60 -150 0 -150 Q -60 -150 -90 -120 Z" fill="#0a0807"/>
    <!-- Arms hugging body (drawn as overlay shapes) -->
    <path d="M -90 -60 Q -150 -20 -130 60 Q -110 120 -50 110 Q -10 100 -20 50 Q -30 0 -60 -30 Z" fill="#0a0807" opacity="0.95"/>
    <path d="M 90 -60 Q 150 -20 130 60 Q 110 120 50 110 Q 10 100 20 50 Q 30 0 60 -30 Z" fill="#0a0807" opacity="0.95"/>
  </g>

  <!-- Soft floating particles (warm light) -->
  <g fill="#d4a574" opacity="0.6">
    <circle cx="280" cy="280" r="2"/>
    <circle cx="380" cy="420" r="1.5"/>
    <circle cx="1180" cy="320" r="2.5"/>
    <circle cx="1080" cy="480" r="1.5"/>
    <circle cx="200" cy="700" r="2"/>
    <circle cx="1340" cy="750" r="2"/>
    <circle cx="450" cy="820" r="1.5"/>
    <circle cx="1100" cy="880" r="2"/>
  </g>

  <!-- Title -->
  <text x="768" y="130" text-anchor="middle" fill="#f4ede0" font-family="'Noto Serif SC', serif" font-size="64" font-weight="900" letter-spacing="0.12em" opacity="0.95">我先抱抱你</text>
</svg>
