<?xml version="1.0" encoding="UTF-8"?>
<svg xmlns="http://www.w3.org/2000/svg" viewBox="0 0 1536 1024" preserveAspectRatio="xMidYMid slice">
  <defs>
    <linearGradient id="bookbg" x1="0" y1="0" x2="0" y2="1">
      <stop offset="0%" stop-color="#16161a"/>
      <stop offset="100%" stop-color="#08080a"/>
    </linearGradient>
    <radialGradient id="bookglow" cx="50%" cy="50%" r="35%">
      <stop offset="0%" stop-color="#e8d9b5" stop-opacity="0.25"/>
      <stop offset="100%" stop-color="#e8d9b5" stop-opacity="0"/>
    </radialGradient>
    <filter id="grain3">
      <feTurbulence type="fractalNoise" baseFrequency="0.95" numOctaves="2" seed="11"/>
      <feColorMatrix values="0 0 0 0 1  0 0 0 0 1  0 0 0 0 1  0 0 0 0.05 0"/>
      <feComposite in2="SourceGraphic" operator="in"/>
    </filter>
  </defs>
  <rect width="1536" height="1024" fill="url(#bookbg)"/>
  <rect width="768" y="200" width="768" height="600" fill="url(#bookglow)"/>
  <rect width="1536" height="1024" filter="url(#grain3)"/>

  <!-- Open book at center, pages spreading light -->
  <g transform="translate(768 540)">
    <!-- Left page -->
    <path d="M -10 -180 Q -180 -160 -320 -100 L -320 220 Q -180 180 -10 200 Z" fill="#f0e8d4" stroke="#1a1a1a" stroke-width="1.5"/>
    <!-- Right page -->
    <path d="M 10 -180 Q 180 -160 320 -100 L 320 220 Q 180 180 10 200 Z" fill="#f4ecda" stroke="#1a1a1a" stroke-width="1.5"/>
    <!-- Page text lines (left) -->
    <g stroke="#1a1a1a" stroke-width="1.5" opacity="0.6">
      <line x1="-280" y1="-120" x2="-50" y2="-110"/>
      <line x1="-280" y1="-90" x2="-50" y2="-80"/>
      <line x1="-280" y1="-60" x2="-60" y2="-50"/>
      <line x1="-280" y1="-30" x2="-50" y2="-22"/>
      <line x1="-280" y1="0" x2="-50" y2="8"/>
      <line x1="-280" y1="30" x2="-60" y2="38"/>
      <line x1="-280" y1="60" x2="-50" y2="68"/>
      <line x1="-280" y1="90" x2="-55" y2="98"/>
      <line x1="-280" y1="120" x2="-50" y2="128"/>
      <line x1="-280" y1="150" x2="-60" y2="158"/>
    </g>
    <!-- Page text lines (right) -->
    <g stroke="#1a1a1a" stroke-width="1.5" opacity="0.6">
      <line x1="50" y1="-110" x2="280" y2="-120"/>
      <line x1="50" y1="-80" x2="280" y2="-90"/>
      <line x1="60" y1="-50" x2="280" y2="-60"/>
      <line x1="50" y1="-22" x2="280" y2="-30"/>
      <line x1="50" y1="8" x2="280" y2="0"/>
      <line x1="60" y1="38" x2="280" y2="30"/>
      <line x1="50" y1="68" x2="280" y2="60"/>
      <line x1="55" y1="98" x2="280" y2="90"/>
      <line x1="50" y1="128" x2="280" y2="120"/>
      <line x1="60" y1="158" x2="280" y2="150"/>
    </g>
    <!-- Hand reaching from right -->
    <path d="M 360 80 Q 380 60 410 50 Q 440 45 460 60 Q 475 75 470 100 Q 460 120 430 122 L 380 125 Z" fill="#e8d4b0" opacity="0.85"/>
  </g>

  <!-- Hand silhouette reaching from left -->
  <g transform="translate(220 600)">
    <path d="M 0 0 Q 40 -20 80 -10 Q 110 0 120 20 Q 125 40 100 50 L 50 55 Z" fill="#3a3025" opacity="0.7"/>
  </g>

  <!-- Title -->
  <text x="768" y="130" text-anchor="middle" fill="#f0e8d4" font-family="'Noto Serif SC', serif" font-size="48" font-weight="900" letter-spacing="0.05em" opacity="0.95">等我文字的人</text>
  <text x="768" y="195" text-anchor="middle" fill="#f0e8d4" font-family="'Noto Serif SC', serif" font-size="28" font-weight="400" letter-spacing="0.25em" opacity="0.7">我只是在</text>
</svg>
