<?xml version="1.0" encoding="UTF-8"?>
<svg xmlns="http://www.w3.org/2000/svg" viewBox="0 0 1536 1024" preserveAspectRatio="xMidYMid slice">
  <defs>
    <linearGradient id="bg" x1="0" y1="0" x2="1" y2="1">
      <stop offset="0%" stop-color="#0a0a0a"/>
      <stop offset="100%" stop-color="#1a1a1a"/>
    </linearGradient>
    <filter id="grain">
      <feTurbulence type="fractalNoise" baseFrequency="0.9" numOctaves="3" seed="3"/>
      <feColorMatrix values="0 0 0 0 1  0 0 0 0 1  0 0 0 0 1  0 0 0 0.06 0"/>
      <feComposite in2="SourceGraphic" operator="in"/>
    </filter>
  </defs>
  <rect width="1536" height="1024" fill="url(#bg)"/>
  <rect width="1536" height="1024" filter="url(#grain)"/>

  <!-- Scattered torn pages -->
  <g opacity="0.85" fill="#f4f1ea">
    <rect x="120" y="640" width="280" height="380" transform="rotate(-8 260 830)"/>
    <rect x="440" y="690" width="240" height="320" transform="rotate(5 560 850)"/>
    <rect x="720" y="660" width="300" height="360" transform="rotate(-3 870 840)"/>
    <rect x="1050" y="700" width="260" height="340" transform="rotate(7 1180 870)"/>
  </g>

  <!-- Typewriter silhouette -->
  <g transform="translate(540 280)" fill="#0a0a0a" stroke="#f4f1ea" stroke-width="2">
    <!-- Typewriter body -->
    <rect x="0" y="180" width="460" height="160" rx="6"/>
    <!-- Carriage -->
    <rect x="40" y="120" width="380" height="80" rx="4"/>
    <!-- Paper roll -->
    <rect x="60" y="40" width="340" height="90" rx="3" fill="#f4f1ea"/>
    <line x1="60" y1="85" x2="400" y2="85" stroke="#0a0a0a" stroke-width="1" opacity="0.4"/>
    <line x1="60" y1="100" x2="400" y2="100" stroke="#0a0a0a" stroke-width="1" opacity="0.4"/>
    <line x1="60" y1="115" x2="400" y2="115" stroke="#0a0a0a" stroke-width="1" opacity="0.4"/>
    <!-- Keys area -->
    <rect x="60" y="220" width="340" height="80" fill="#0a0a0a"/>
    <circle cx="100" cy="260" r="8" fill="#f4f1ea" opacity="0.6"/>
    <circle cx="140" cy="260" r="8" fill="#f4f1ea" opacity="0.6"/>
    <circle cx="180" cy="260" r="8" fill="#f4f1ea" opacity="0.6"/>
    <circle cx="220" cy="260" r="8" fill="#f4f1ea" opacity="0.6"/>
    <circle cx="260" cy="260" r="8" fill="#f4f1ea" opacity="0.6"/>
    <circle cx="300" cy="260" r="8" fill="#f4f1ea" opacity="0.6"/>
    <circle cx="340" cy="260" r="8" fill="#f4f1ea" opacity="0.6"/>
    <circle cx="380" cy="260" r="8" fill="#f4f1ea" opacity="0.6"/>
  </g>

  <!-- Title -->
  <text x="768" y="120" text-anchor="middle" fill="#f4f1ea" font-family="'Noto Serif SC', serif" font-size="56" font-weight="900" letter-spacing="0.08em" opacity="0.95">我的文字</text>
  <text x="768" y="195" text-anchor="middle" fill="#f4f1ea" font-family="'Noto Serif SC', serif" font-size="32" font-weight="400" letter-spacing="0.3em" opacity="0.7">背叛我了</text>
</svg>
